<?xml version="1.0" encoding="UTF-8" standalone="no"?>
<svg
   xmlns:dc="http://purl.org/dc/elements/1.1/"
   xmlns:cc="http://creativecommons.org/ns#"
   xmlns:rdf="http://www.w3.org/1999/02/22-rdf-syntax-ns#"
   xmlns:svg="http://www.w3.org/2000/svg"
   xmlns="http://www.w3.org/2000/svg"
   xmlns:sodipodi="http://sodipodi.sourceforge.net/DTD/sodipodi-0.dtd"
   xmlns:inkscape="http://www.inkscape.org/namespaces/inkscape"
   sodipodi:docname="orth.svg"
   inkscape:version="1.0beta2 (2b71d25, 2019-12-03)"
   id="svg8"
   version="1.1"
   viewBox="0 0 300 300"
   height="300px"
   width="300px">
  <metadata
     id="metadata842">
    <rdf:RDF>
      <cc:Work
         rdf:about="">
        <dc:format>image/svg+xml</dc:format>
        <dc:type
           rdf:resource="http://purl.org/dc/dcmitype/StillImage" />
      </cc:Work>
    </rdf:RDF>
  </metadata>
  <defs
     id="defs840" />
  <sodipodi:namedview
     pagecolor="#ffffff"
     bordercolor="#666666"
     inkscape:document-rotation="0"
     borderopacity="1"
     objecttolerance="10"
     gridtolerance="10"
     guidetolerance="10"
     inkscape:pageopacity="0"
     inkscape:pageshadow="2"
     inkscape:window-width="1389"
     inkscape:window-height="784"
     id="namedview838"
     showgrid="false"
     inkscape:zoom="1.1242267"
     inkscape:cx="191.34017"
     inkscape:cy="215.79922"
     inkscape:window-x="0"
     inkscape:window-y="23"
     inkscape:window-maximized="0"
     inkscape:current-layer="svg8" />
  <g
     id="g835"
     transform="matrix(0.5198485,0.10570916,-0.10570916,0.5198485,78.778572,55.649765)"
     style="stroke-width:7.124632;stroke-miterlimit:4;stroke-dasharray:none">
    <path
       d="m 64.007894,13.394532 q 9.223493,1.930142 17.550561,18.006023 l -13.58555,23.530861 q -18.085654,0.826488 -24.368953,-6.19622 l -23.20001,13.394532 q 2.940194,8.952851 -6.818393,24.202243 h -27.171098 q -9.758587,-15.249392 -6.818393,-24.202243 l -23.20001,-13.394532 q -6.283299,7.022708 -24.368953,6.19622 l -13.58555,-23.530861 q 8.327068,-16.075881 17.550561,-18.006023 v -26.789064 q -9.223493,-1.930142 -17.550561,-18.006023 l 13.58555,-23.530861 q 18.085654,-0.826488 24.368953,6.19622 l 23.20001,-13.394532 q -2.940194,-8.952851 6.818393,-24.202243 h 27.171098 q 9.758587,15.249392 6.818393,24.202243 l 23.20001,13.394532 q 6.283299,-7.022708 24.368953,-6.19622 l 13.58555,23.530861 q -8.327068,16.075881 -17.550561,18.006023 z"
       stroke="black"
       stroke-width="2"
       fill="none"
       id="path833"
       inkscape:connector-curvature="0"
       style="stroke-width:7.124632;stroke-miterlimit:4;stroke-dasharray:none" />
  </g>
  <g
     transform="matrix(0.39734742,0.35147107,-0.35147107,0.39734742,156.95272,71.442766)"
     id="g856"
     style="stroke-width:7.12463206;stroke-miterlimit:4;stroke-dasharray:none">
    <path
       inkscape:connector-curvature="0"
       id="path854"
       fill="none"
       stroke-width="2"
       stroke="black"
       d="m 64.007894,13.394532 q 9.223493,1.930142 17.550561,18.006023 l -13.58555,23.530861 q -18.085654,0.826488 -24.368953,-6.19622 l -23.20001,13.394532 q 2.940194,8.952851 -6.818393,24.202243 h -27.171098 q -9.758587,-15.249392 -6.818393,-24.202243 l -23.20001,-13.394532 q -6.283299,7.022708 -24.368953,6.19622 l -13.58555,-23.530861 q 8.327068,-16.075881 17.550561,-18.006023 v -26.789064 q -9.223493,-1.930142 -17.550561,-18.006023 l 13.58555,-23.530861 q 18.085654,-0.826488 24.368953,6.19622 l 23.20001,-13.394532 q -2.940194,-8.952851 6.818393,-24.202243 h 27.171098 q 9.758587,15.249392 6.818393,24.202243 l 23.20001,13.394532 q 6.283299,-7.022708 24.368953,-6.19622 l 13.58555,23.530861 q -8.327068,16.075881 -17.550561,18.006023 z"
       style="stroke-width:7.12463206;stroke-miterlimit:4;stroke-dasharray:none" />
  </g>
  <g
     id="g860"
     transform="matrix(0.39734742,0.35147107,-0.35147107,0.39734742,26.014359,115.45406)"
     style="stroke-width:7.12463206;stroke-miterlimit:4;stroke-dasharray:none">
    <path
       d="m 64.007894,13.394532 q 9.223493,1.930142 17.550561,18.006023 l -13.58555,23.530861 q -18.085654,0.826488 -24.368953,-6.19622 l -23.20001,13.394532 q 2.940194,8.952851 -6.818393,24.202243 h -27.171098 q -9.758587,-15.249392 -6.818393,-24.202243 l -23.20001,-13.394532 q -6.283299,7.022708 -24.368953,6.19622 l -13.58555,-23.530861 q 8.327068,-16.075881 17.550561,-18.006023 v -26.789064 q -9.223493,-1.930142 -17.550561,-18.006023 l 13.58555,-23.530861 q 18.085654,-0.826488 24.368953,6.19622 l 23.20001,-13.394532 q -2.940194,-8.952851 6.818393,-24.202243 h 27.171098 q 9.758587,15.249392 6.818393,24.202243 l 23.20001,13.394532 q 6.283299,-7.022708 24.368953,-6.19622 l 13.58555,23.530861 q -8.327068,16.075881 -17.550561,18.006023 z"
       stroke="black"
       stroke-width="2"
       fill="none"
       id="path858"
       inkscape:connector-curvature="0"
       style="stroke-width:7.12463206;stroke-miterlimit:4;stroke-dasharray:none" />
  </g>
  <g
     transform="matrix(0.5198485,0.10570916,-0.10570916,0.5198485,10.022758,193.58782)"
     id="g864"
     style="stroke-width:7.124632;stroke-miterlimit:4;stroke-dasharray:none">
    <path
       inkscape:connector-curvature="0"
       id="path862"
       fill="none"
       stroke-width="2"
       stroke="black"
       d="m 64.007894,13.394532 q 9.223493,1.930142 17.550561,18.006023 l -13.58555,23.530861 q -18.085654,0.826488 -24.368953,-6.19622 l -23.20001,13.394532 q 2.940194,8.952851 -6.818393,24.202243 h -27.171098 q -9.758587,-15.249392 -6.818393,-24.202243 l -23.20001,-13.394532 q -6.283299,7.022708 -24.368953,6.19622 l -13.58555,-23.530861 q 8.327068,-16.075881 17.550561,-18.006023 v -26.789064 q -9.223493,-1.930142 -17.550561,-18.006023 l 13.58555,-23.530861 q 18.085654,-0.826488 24.368953,6.19622 l 23.20001,-13.394532 q -2.940194,-8.952851 6.818393,-24.202243 h 27.171098 q 9.758587,15.249392 6.818393,24.202243 l 23.20001,13.394532 q 6.283299,-7.022708 24.368953,-6.19622 l 13.58555,23.530861 q -8.327068,16.075881 -17.550561,18.006023 z"
       style="stroke-width:7.124632;stroke-miterlimit:4;stroke-dasharray:none" />
  </g>
  <g
     id="g868"
     transform="matrix(0.5198485,0.10570916,-0.10570916,0.5198485,242.03267,199.95608)"
     style="stroke-width:7.124632;stroke-miterlimit:4;stroke-dasharray:none">
    <path
       d="m 64.007894,13.394532 q 9.223493,1.930142 17.550561,18.006023 l -13.58555,23.530861 q -18.085654,0.826488 -24.368953,-6.19622 l -23.20001,13.394532 q 2.940194,8.952851 -6.818393,24.202243 h -27.171098 q -9.758587,-15.249392 -6.818393,-24.202243 l -23.20001,-13.394532 q -6.283299,7.022708 -24.368953,6.19622 l -13.58555,-23.530861 q 8.327068,-16.075881 17.550561,-18.006023 v -26.789064 q -9.223493,-1.930142 -17.550561,-18.006023 l 13.58555,-23.530861 q 18.085654,-0.826488 24.368953,6.19622 l 23.20001,-13.394532 q -2.940194,-8.952851 6.818393,-24.202243 h 27.171098 q 9.758587,15.249392 6.818393,24.202243 l 23.20001,13.394532 q 6.283299,-7.022708 24.368953,-6.19622 l 13.58555,23.530861 q -8.327068,16.075881 -17.550561,18.006023 z"
       stroke="black"
       stroke-width="2"
       fill="none"
       id="path866"
       inkscape:connector-curvature="0"
       style="stroke-width:7.124632;stroke-miterlimit:4;stroke-dasharray:none" />
  </g>
  <g
     transform="matrix(0.5198485,0.10570916,-0.10570916,0.5198485,232.61434,46.225019)"
     id="g872"
     style="stroke-width:7.124632;stroke-miterlimit:4;stroke-dasharray:none">
    <path
       inkscape:connector-curvature="0"
       id="path870"
       fill="none"
       stroke-width="2"
       stroke="black"
       d="m 64.007894,13.394532 q 9.223493,1.930142 17.550561,18.006023 l -13.58555,23.530861 q -18.085654,0.826488 -24.368953,-6.19622 l -23.20001,13.394532 q 2.940194,8.952851 -6.818393,24.202243 h -27.171098 q -9.758587,-15.249392 -6.818393,-24.202243 l -23.20001,-13.394532 q -6.283299,7.022708 -24.368953,6.19622 l -13.58555,-23.530861 q 8.327068,-16.075881 17.550561,-18.006023 v -26.789064 q -9.223493,-1.930142 -17.550561,-18.006023 l 13.58555,-23.530861 q 18.085654,-0.826488 24.368953,6.19622 l 23.20001,-13.394532 q -2.940194,-8.952851 6.818393,-24.202243 h 27.171098 q 9.758587,15.249392 6.818393,24.202243 l 23.20001,13.394532 q 6.283299,-7.022708 24.368953,-6.19622 l 13.58555,23.530861 q -8.327068,16.075881 -17.550561,18.006023 z"
       style="stroke-width:7.124632;stroke-miterlimit:4;stroke-dasharray:none" />
  </g>
  <g
     id="g876"
     transform="matrix(0.39734742,0.35147107,-0.35147107,0.39734742,258.02427,121.82232)"
     style="stroke-width:7.12463206;stroke-miterlimit:4;stroke-dasharray:none">
    <path
       d="m 64.007894,13.394532 q 9.223493,1.930142 17.550561,18.006023 l -13.58555,23.530861 q -18.085654,0.826488 -24.368953,-6.19622 l -23.20001,13.394532 q 2.940194,8.952851 -6.818393,24.202243 h -27.171098 q -9.758587,-15.249392 -6.818393,-24.202243 l -23.20001,-13.394532 q -6.283299,7.022708 -24.368953,6.19622 l -13.58555,-23.530861 q 8.327068,-16.075881 17.550561,-18.006023 v -26.789064 q -9.223493,-1.930142 -17.550561,-18.006023 l 13.58555,-23.530861 q 18.085654,-0.826488 24.368953,6.19622 l 23.20001,-13.394532 q -2.940194,-8.952851 6.818393,-24.202243 h 27.171098 q 9.758587,15.249392 6.818393,24.202243 l 23.20001,13.394532 q 6.283299,-7.022708 24.368953,-6.19622 l 13.58555,23.530861 q -8.327068,16.075881 -17.550561,18.006023 z"
       stroke="black"
       stroke-width="2"
       fill="none"
       id="path874"
       inkscape:connector-curvature="0"
       style="stroke-width:7.12463206;stroke-miterlimit:4;stroke-dasharray:none" />
  </g>
  <g
     transform="matrix(0.39734742,0.35147107,-0.35147107,0.39734742,163.85853,184.16308)"
     id="g880"
     style="stroke-width:7.12463206;stroke-miterlimit:4;stroke-dasharray:none">
    <path
       inkscape:connector-curvature="0"
       id="path878"
       fill="none"
       stroke-width="2"
       stroke="black"
       d="m 64.007894,13.394532 q 9.223493,1.930142 17.550561,18.006023 l -13.58555,23.530861 q -18.085654,0.826488 -24.368953,-6.19622 l -23.20001,13.394532 q 2.940194,8.952851 -6.818393,24.202243 h -27.171098 q -9.758587,-15.249392 -6.818393,-24.202243 l -23.20001,-13.394532 q -6.283299,7.022708 -24.368953,6.19622 l -13.58555,-23.530861 q 8.327068,-16.075881 17.550561,-18.006023 v -26.789064 q -9.223493,-1.930142 -17.550561,-18.006023 l 13.58555,-23.530861 q 18.085654,-0.826488 24.368953,6.19622 l 23.20001,-13.394532 q -2.940194,-8.952851 6.818393,-24.202243 h 27.171098 q 9.758587,15.249392 6.818393,24.202243 l 23.20001,13.394532 q 6.283299,-7.022708 24.368953,-6.19622 l 13.58555,23.530861 q -8.327068,16.075881 -17.550561,18.006023 z"
       style="stroke-width:7.12463206;stroke-miterlimit:4;stroke-dasharray:none" />
  </g>
  <g
     id="g884"
     transform="matrix(0.39734742,0.35147107,-0.35147107,0.39734742,267.25042,275.6177)"
     style="stroke-width:7.12463206;stroke-miterlimit:4;stroke-dasharray:none">
    <path
       d="m 64.007894,13.394532 q 9.223493,1.930142 17.550561,18.006023 l -13.58555,23.530861 q -18.085654,0.826488 -24.368953,-6.19622 l -23.20001,13.394532 q 2.940194,8.952851 -6.818393,24.202243 h -27.171098 q -9.758587,-15.249392 -6.818393,-24.202243 l -23.20001,-13.394532 q -6.283299,7.022708 -24.368953,6.19622 l -13.58555,-23.530861 q 8.327068,-16.075881 17.550561,-18.006023 v -26.789064 q -9.223493,-1.930142 -17.550561,-18.006023 l 13.58555,-23.530861 q 18.085654,-0.826488 24.368953,6.19622 l 23.20001,-13.394532 q -2.940194,-8.952851 6.818393,-24.202243 h 27.171098 q 9.758587,15.249392 6.818393,24.202243 l 23.20001,13.394532 q 6.283299,-7.022708 24.368953,-6.19622 l 13.58555,23.530861 q -8.327068,16.075881 -17.550561,18.006023 z"
       stroke="black"
       stroke-width="2"
       fill="none"
       id="path882"
       inkscape:connector-curvature="0"
       style="stroke-width:7.12463206;stroke-miterlimit:4;stroke-dasharray:none" />
  </g>
  <g
     transform="matrix(0.5198485,0.10570916,-0.10570916,0.5198485,191.65312,301.02763)"
     id="g888"
     style="stroke-width:7.124632;stroke-miterlimit:4;stroke-dasharray:none">
    <path
       inkscape:connector-curvature="0"
       id="path886"
       fill="none"
       stroke-width="2"
       stroke="black"
       d="m 64.007894,13.394532 q 9.223493,1.930142 17.550561,18.006023 l -13.58555,23.530861 q -18.085654,0.826488 -24.368953,-6.19622 l -23.20001,13.394532 q 2.940194,8.952851 -6.818393,24.202243 h -27.171098 q -9.758587,-15.249392 -6.818393,-24.202243 l -23.20001,-13.394532 q -6.283299,7.022708 -24.368953,6.19622 l -13.58555,-23.530861 q 8.327068,-16.075881 17.550561,-18.006023 v -26.789064 q -9.223493,-1.930142 -17.550561,-18.006023 l 13.58555,-23.530861 q 18.085654,-0.826488 24.368953,6.19622 l 23.20001,-13.394532 q -2.940194,-8.952851 6.818393,-24.202243 h 27.171098 q 9.758587,15.249392 6.818393,24.202243 l 23.20001,13.394532 q 6.283299,-7.022708 24.368953,-6.19622 l 13.58555,23.530861 q -8.327068,16.075881 -17.550561,18.006023 z"
       style="stroke-width:7.124632;stroke-miterlimit:4;stroke-dasharray:none" />
  </g>
  <g
     id="g892"
     transform="matrix(0.39734742,0.35147107,-0.35147107,0.39734742,113.51936,285.03603)"
     style="stroke-width:7.12463206;stroke-miterlimit:4;stroke-dasharray:none">
    <path
       d="m 64.007894,13.394532 q 9.223493,1.930142 17.550561,18.006023 l -13.58555,23.530861 q -18.085654,0.826488 -24.368953,-6.19622 l -23.20001,13.394532 q 2.940194,8.952851 -6.818393,24.202243 h -27.171098 q -9.758587,-15.249392 -6.818393,-24.202243 l -23.20001,-13.394532 q -6.283299,7.022708 -24.368953,6.19622 l -13.58555,-23.530861 q 8.327068,-16.075881 17.550561,-18.006023 v -26.789064 q -9.223493,-1.930142 -17.550561,-18.006023 l 13.58555,-23.530861 q 18.085654,-0.826488 24.368953,6.19622 l 23.20001,-13.394532 q -2.940194,-8.952851 6.818393,-24.202243 h 27.171098 q 9.758587,15.249392 6.818393,24.202243 l 23.20001,13.394532 q 6.283299,-7.022708 24.368953,-6.19622 l 13.58555,23.530861 q -8.327068,16.075881 -17.550561,18.006023 z"
       stroke="black"
       stroke-width="2"
       fill="none"
       id="path890"
       inkscape:connector-curvature="0"
       style="stroke-width:7.12463206;stroke-miterlimit:4;stroke-dasharray:none" />
  </g>
  <g
     id="g900"
     transform="translate(14.594662,7.3379095)"
     style="stroke-width:3.77952756;stroke-miterlimit:4;stroke-dasharray:none">
    <path
       sodipodi:nodetypes="cccccc"
       inkscape:connector-curvature="0"
       id="path894"
       d="m 102.41994,126.65325 c 0,0 3.49671,6.84333 9.72763,4.51632 5.93706,-3.58349 1.6987,-22.95806 -0.17584,-27.48533 -17.320589,-24.443362 -25.786009,6.56714 -30.318786,17.44488 -3.900818,9.12673 4.351114,17.84683 10.94989,19.77007 5.555194,1.46793 9.817106,-14.24594 9.817106,-14.24594 z"
       style="fill:none;stroke:#000000;stroke-width:3.77952756;stroke-linecap:butt;stroke-linejoin:miter;stroke-opacity:1;stroke-miterlimit:4;stroke-dasharray:none" />
    <path
       inkscape:connector-curvature="0"
       id="path896"
       d="m 99.830098,132.683 -9.838229,-4.07583"
       style="fill:none;stroke:#000000;stroke-width:3.77952756;stroke-linecap:butt;stroke-linejoin:miter;stroke-opacity:1;stroke-miterlimit:4;stroke-dasharray:none" />
  </g>
  <path
     style="fill:none;stroke:#000000;stroke-width:3.77953;stroke-linecap:butt;stroke-linejoin:miter;stroke-miterlimit:4;stroke-dasharray:none;stroke-opacity:1"
     d="m 103.80161,147.23124 c -3.37861,2.10407 1.57224,7.77758 3.95848,7.53895 15.64476,-9.93908 42.14277,-28.08998 58.73479,-33.85975 11.39235,-3.84937 14.38738,-3.99376 22.21104,-9.98391 l -2.64316,-13.927016 5.45396,7.688506 1.53866,-11.498485 4.32848,-0.477701 -1.22458,13.392756 3.89242,-13.495296 4.61202,0.377789 -4.03255,13.719777 7.25823,-13.444847 4.57275,1.244223 -8.46446,16.531294 -10.83669,8.01149 c -7.45361,3.82815 -13.17149,4.0798 -23.75941,8.64267 -20.19962,8.70503 -46.64757,23.05913 -56.13521,37.39008 -1.28302,2.9937 -10.85544,11.97111 -8.93092,30.14721 1.92453,18.17611 40.00881,36.1923 40.00881,36.1923 6.88067,4.66221 54.8663,-3.84541 54.8663,-3.84541 l 12.37145,-0.88374 3.98202,4.48824 -1.73026,10.32952 7.34072,12.79169 -2.82397,11.00613 -4.99585,-0.49146 1.20206,-6.367 -12.22299,-16.98438 c -53.07302,11.7281 -59.83997,7.3706 -63.86938,4.49245 -4.0294,-2.87815 -26.21663,-14.00976 -42.334253,-11.99505 -16.117625,2.0147 -36.478584,35.72011 -37.629843,40.61297 -1.151259,4.89285 7.697112,30.50835 7.697112,30.50835 v 0"
     id="path902"
     inkscape:connector-curvature="0"
     sodipodi:nodetypes="ccccccccccccccccscscccccccccccsscc" />
  <path
     style="fill:none;stroke:#000000;stroke-width:3.77953;stroke-linecap:butt;stroke-linejoin:miter;stroke-miterlimit:4;stroke-dasharray:none;stroke-opacity:1"
     d="m 99.220132,143.27045 c -3.63522,5.55975 -7.056604,2.99371 -8.125787,1.49685 -1.069182,-1.49685 11.444625,-37.07848 6.526385,-47.984146 -4.91824,-10.905664 -17.219947,1.993949 -17.861456,9.264396 -5.804904,24.62383 -11.111987,34.93861 -14.184369,62.41126"
     id="path904"
     inkscape:connector-curvature="0"
     sodipodi:nodetypes="ccscc" />
  <path
     style="fill:none;stroke:#000000;stroke-width:3.77953;stroke-linecap:butt;stroke-linejoin:miter;stroke-miterlimit:4;stroke-dasharray:none;stroke-opacity:1"
     d="m 44.035653,303.93235 c 0,0 -9.657583,-26.75956 -9.785701,-31.37181 -0.287814,-10.36132 17.844513,-27.34239 33.419558,-52.30895 14.684454,-23.11383 15.497726,-33.96607 15.106863,-58.06573 -3.883958,-4.97545 16.342969,-59.52038 6.506491,-56.31283 -6.701563,3.11296 -11.682107,37.79103 -15.881252,63.01851 l 7.203672,7.04359 -2.00638,4.69332 -3.679017,-2.24173 1.807965,11.81535 -4.586433,-0.53216 -2.883069,-13.1634 0.558309,13.54944 -4.492619,0.13304 -0.425269,-13.51021 -1.89949,13.60403 -4.492619,-0.0131 1.609551,-17.90902 5.458692,-3.9019"
     id="path906"
     inkscape:connector-curvature="0"
     sodipodi:nodetypes="ccccscccccccccccccc" />
</svg>
