<?xml version="1.0" encoding="UTF-8" standalone="no"?>
<svg
   xmlns:dc="http://purl.org/dc/elements/1.1/"
   xmlns:cc="http://creativecommons.org/ns#"
   xmlns:rdf="http://www.w3.org/1999/02/22-rdf-syntax-ns#"
   xmlns:svg="http://www.w3.org/2000/svg"
   xmlns="http://www.w3.org/2000/svg"
   xmlns:sodipodi="http://sodipodi.sourceforge.net/DTD/sodipodi-0.dtd"
   xmlns:inkscape="http://www.inkscape.org/namespaces/inkscape"
   sodipodi:docname="perfect.svg"
   inkscape:version="1.0beta2 (2b71d25, 2019-12-03)"
   id="svg8"
   version="1.1"
   viewBox="0 0 300 300"
   height="300px"
   width="300px"
   inkscape:export-filename="/Users/sky/Documents/Writing/Web Art/3ai/site/media/favico-2.png"
   inkscape:export-xdpi="96"
   inkscape:export-ydpi="96">
  <metadata
     id="metadata842">
    <rdf:RDF>
      <cc:Work
         rdf:about="">
        <dc:format>image/svg+xml</dc:format>
        <dc:type
           rdf:resource="http://purl.org/dc/dcmitype/StillImage" />
      </cc:Work>
    </rdf:RDF>
  </metadata>
  <defs
     id="defs840" />
  <sodipodi:namedview
     pagecolor="#ffffff"
     bordercolor="#666666"
     inkscape:document-rotation="0"
     borderopacity="1"
     objecttolerance="10"
     gridtolerance="10"
     guidetolerance="10"
     inkscape:pageopacity="0"
     inkscape:pageshadow="2"
     inkscape:window-width="1389"
     inkscape:window-height="774"
     id="namedview838"
     showgrid="false"
     inkscape:zoom="1.1242267"
     inkscape:cx="191.34017"
     inkscape:cy="215.79922"
     inkscape:window-x="0"
     inkscape:window-y="23"
     inkscape:window-maximized="0"
     inkscape:current-layer="svg8" />
  <g
     id="g835"
     transform="matrix(0.65950893,0.14431591,-0.13410857,0.70970582,159.65054,103.38783)"
     style="fill:#ffffff;fill-opacity:1;stroke-width:18.6694;stroke-miterlimit:4;stroke-dasharray:none">
    <path
       d="m 64.007894,13.394532 q 9.223493,1.930142 17.550561,18.006023 l -13.58555,23.530861 q -18.085654,0.826488 -24.368953,-6.19622 l -23.20001,13.394532 q 2.940194,8.952851 -6.818393,24.202243 h -27.171098 q -9.758587,-15.249392 -6.818393,-24.202243 l -23.20001,-13.394532 q -6.283299,7.022708 -24.368953,6.19622 l -13.58555,-23.530861 q 8.327068,-16.075881 17.550561,-18.006023 v -26.789064 q -9.223493,-1.930142 -17.550561,-18.006023 l 13.58555,-23.530861 q 18.085654,-0.826488 24.368953,6.19622 l 23.20001,-13.394532 q -2.940194,-8.952851 6.818393,-24.202243 h 27.171098 q 9.758587,15.249392 6.818393,24.202243 l 23.20001,13.394532 q 6.283299,-7.022708 24.368953,-6.19622 l 13.58555,23.530861 q -8.327068,16.075881 -17.550561,18.006023 z"
       stroke="black"
       stroke-width="2"
       fill="none"
       id="path833"
       inkscape:connector-curvature="0"
       style="fill:#ffffff;fill-opacity:1;stroke-width:18.6694;stroke-miterlimit:4;stroke-dasharray:none" />
  </g>
  <g
     id="g900"
     transform="matrix(5.7905817,0,0,6.0793616,-420.92104,-565.77355)"
     style="stroke-width:2.23418;stroke-miterlimit:4;stroke-dasharray:none">
    <path
       sodipodi:nodetypes="cccccc"
       inkscape:connector-curvature="0"
       id="path894"
       d="m 102.41994,126.65325 c 0,0 3.49671,6.84333 9.72763,4.51632 5.93706,-3.58349 1.6987,-22.95806 -0.17584,-27.48533 -17.320589,-24.443362 -25.786009,6.56714 -30.318786,17.44488 -3.900818,9.12673 4.351114,17.84683 10.94989,19.77007 5.555194,1.46793 9.817106,-14.24594 9.817106,-14.24594 z"
       style="fill:none;stroke:#000000;stroke-width:2.23418;stroke-linecap:butt;stroke-linejoin:miter;stroke-miterlimit:4;stroke-dasharray:none;stroke-opacity:1" />
    <path
       inkscape:connector-curvature="0"
       id="path896"
       d="m 99.830098,132.683 -9.838229,-4.07583"
       style="fill:none;stroke:#000000;stroke-width:2.23418;stroke-linecap:butt;stroke-linejoin:miter;stroke-miterlimit:4;stroke-dasharray:none;stroke-opacity:1" />
  </g>
</svg>
