<?xml version="1.0" encoding="UTF-8" standalone="no"?>
<svg
   xmlns:dc="http://purl.org/dc/elements/1.1/"
   xmlns:cc="http://creativecommons.org/ns#"
   xmlns:rdf="http://www.w3.org/1999/02/22-rdf-syntax-ns#"
   xmlns:svg="http://www.w3.org/2000/svg"
   xmlns="http://www.w3.org/2000/svg"
   xmlns:sodipodi="http://sodipodi.sourceforge.net/DTD/sodipodi-0.dtd"
   xmlns:inkscape="http://www.inkscape.org/namespaces/inkscape"
   sodipodi:docname="kudzu.svg"
   inkscape:version="1.0beta2 (2b71d25, 2019-12-03)"
   id="svg8"
   version="1.1"
   viewBox="-100 -100 200 200">
  <g>
   <path d="M 64.00789402962575 13.394531743978268
Q 73.23138687262495 15.324674416985557 81.55845473580828 31.400554739624944
A 87.39437268410977 87.39437268410977 0 0 1 75.68574689224388 43.69718634205488
A 87.39437268410977 87.39437268410977 0 0 1 67.9729054653432 54.93141632480076
Q 49.88725078614746 55.75790417756669 43.603951776895144 48.735196400409066
A 65.39437268410977 65.39437268410977 0 0 1 32.69718634205488 56.63318800898623
A 65.39437268410977 65.39437268410977 0 0 1 20.403942252730612 62.129728144387336
Q 23.344136086477516 71.08257859455225 13.585549270465098 86.3319710644257
A 87.39437268410977 87.39437268410977 0 0 1 2.47568108938684e-14 87.39437268410977
A 87.39437268410977 87.39437268410977 0 0 1 -13.585549270465048 86.3319710644257
Q -23.344136086477477 71.08257859455226 -20.40394225273059 62.12972814438734
A 65.39437268410977 65.39437268410977 0 0 1 -32.69718634205487 56.63318800898624
A 65.39437268410977 65.39437268410977 0 0 1 -43.60395177689512 48.73519640040908
Q -49.88725078614743 55.7579041775667 -67.9729054653432 54.931416324800765
A 87.39437268410977 87.39437268410977 0 0 1 -75.68574689224387 43.69718634205491
A 87.39437268410977 87.39437268410977 0 0 1 -81.55845473580828 31.400554739624965
Q -73.23138687262494 15.324674416985594 -64.00789402962575 13.3945317439783
A 65.39437268410977 65.39437268410977 0 0 1 -65.39437268410977 3.704943621291124e-14
A 65.39437268410977 65.39437268410977 0 0 1 -64.00789402962576 -13.394531743978229
Q -73.23138687262497 -15.324674416985546 -81.5584547358083 -31.400554739624912
A 87.39437268410977 87.39437268410977 0 0 1 -75.68574689224391 -43.69718634205483
A 87.39437268410977 87.39437268410977 0 0 1 -67.97290546534325 -54.931416324800715
Q -49.887250786147504 -55.757904177566644 -43.60395177689518 -48.73519640040903
A 65.39437268410977 65.39437268410977 0 0 1 -32.69718634205496 -56.63318800898618
A 65.39437268410977 65.39437268410977 0 0 1 -20.403942252730676 -62.129728144387315
Q -23.34413608647751 -71.08257859455225 -13.585549270465071 -86.3319710644257
A 87.39437268410977 87.39437268410977 0 0 1 -1.6054085815662885e-14 -87.39437268410977
A 87.39437268410977 87.39437268410977 0 0 1 13.585549270465114 -86.3319710644257
Q 23.344136086477548 -71.08257859455223 20.403942252730655 -62.12972814438732
A 65.39437268410977 65.39437268410977 0 0 1 32.697186342054934 -56.633188008986195
A 65.39437268410977 65.39437268410977 0 0 1 43.60395177689516 -48.73519640040905
Q 49.887250786147426 -55.75790417756671 67.97290546534319 -54.93141632480078
A 87.39437268410977 87.39437268410977 0 0 1 75.6857468922439 -43.697186342054856
A 87.39437268410977 87.39437268410977 0 0 1 81.55845473580828 -31.40055473962494
Q 73.23138687262497 -15.324674416985541 64.00789402962576 -13.394531743978254
A 65.39437268410977 65.39437268410977 0 0 1 65.39437268410977 -1.6017001837968826e-14
A 65.39437268410977 65.39437268410977 0 0 1 64.00789402962575 13.394531743978277
Z"
   stroke="black" stroke-width="2" fill="none"></path>
  </g>
</svg>
